<mxfile host="app.diagrams.net" modified="2023-04-28T08:52:03.248Z" agent="Mozilla/5.0 (Windows NT 10.0; Win64; x64; rv:109.0) Gecko/20100101 Firefox/112.0" etag="UOHtx0cfC0_KN8ME5CRA" version="21.2.3" type="device">
  <diagram name="Sayfa -1" id="KXNFNAzD82l4FM4D60sQ">
    <mxGraphModel dx="1050" dy="566" grid="1" gridSize="10" guides="1" tooltips="1" connect="1" arrows="1" fold="1" page="1" pageScale="1" pageWidth="827" pageHeight="1169" math="0" shadow="0">
      <root>
        <mxCell id="0" />
        <mxCell id="1" parent="0" />
        <mxCell id="zIGlHDeocK-FYwGrawx6-1" value="Articles" style="shape=umlFrame;whiteSpace=wrap;html=1;pointerEvents=0;recursiveResize=0;container=1;collapsible=0;width=186;height=20;" vertex="1" parent="1">
          <mxGeometry x="14" y="10" width="706" height="530" as="geometry" />
        </mxCell>
        <mxCell id="zIGlHDeocK-FYwGrawx6-2" value="&lt;div&gt;User&lt;/div&gt;&lt;div&gt;&lt;br&gt;&lt;/div&gt;" style="shape=umlActor;verticalLabelPosition=bottom;verticalAlign=top;html=1;outlineConnect=0;" vertex="1" parent="zIGlHDeocK-FYwGrawx6-1">
          <mxGeometry x="40" y="100" width="30" height="60" as="geometry" />
        </mxCell>
        <mxCell id="zIGlHDeocK-FYwGrawx6-3" value="" style="html=1;points=[];perimeter=orthogonalPerimeter;fillColor=strokeColor;align=left;verticalAlign=top;spacingLeft=10;" vertex="1" parent="zIGlHDeocK-FYwGrawx6-1">
          <mxGeometry x="253.5" y="190" width="5" height="130" as="geometry" />
        </mxCell>
        <mxCell id="zIGlHDeocK-FYwGrawx6-4" value="" style="html=1;verticalAlign=bottom;labelBackgroundColor=none;endArrow=none;endFill=0;rounded=0;dashed=1;" edge="1" parent="zIGlHDeocK-FYwGrawx6-1" source="zIGlHDeocK-FYwGrawx6-8">
          <mxGeometry width="160" relative="1" as="geometry">
            <mxPoint x="54.5" y="649" as="sourcePoint" />
            <mxPoint x="54.5" y="190" as="targetPoint" />
            <Array as="points" />
          </mxGeometry>
        </mxCell>
        <mxCell id="zIGlHDeocK-FYwGrawx6-5" value=":Articles" style="shape=umlLifeline;perimeter=lifelinePerimeter;whiteSpace=wrap;html=1;container=1;dropTarget=0;collapsible=0;recursiveResize=0;outlineConnect=0;portConstraint=eastwest;newEdgeStyle={&quot;edgeStyle&quot;:&quot;elbowEdgeStyle&quot;,&quot;elbow&quot;:&quot;vertical&quot;,&quot;curved&quot;:0,&quot;rounded&quot;:0};" vertex="1" parent="zIGlHDeocK-FYwGrawx6-1">
          <mxGeometry x="206" y="100" width="100" height="410" as="geometry" />
        </mxCell>
        <mxCell id="zIGlHDeocK-FYwGrawx6-6" value="open_Articles()" style="html=1;verticalAlign=bottom;labelBackgroundColor=none;endArrow=block;endFill=1;rounded=0;" edge="1" parent="zIGlHDeocK-FYwGrawx6-1" target="zIGlHDeocK-FYwGrawx6-5">
          <mxGeometry x="0.0025" width="160" relative="1" as="geometry">
            <mxPoint x="56" y="200" as="sourcePoint" />
            <mxPoint x="226" y="200" as="targetPoint" />
            <mxPoint as="offset" />
          </mxGeometry>
        </mxCell>
        <mxCell id="zIGlHDeocK-FYwGrawx6-7" value="" style="html=1;verticalAlign=bottom;labelBackgroundColor=none;endArrow=none;endFill=0;rounded=0;dashed=1;" edge="1" parent="zIGlHDeocK-FYwGrawx6-1" target="zIGlHDeocK-FYwGrawx6-8">
          <mxGeometry width="160" relative="1" as="geometry">
            <mxPoint x="55" y="540" as="sourcePoint" />
            <mxPoint x="68.5" y="200" as="targetPoint" />
          </mxGeometry>
        </mxCell>
        <mxCell id="zIGlHDeocK-FYwGrawx6-8" value="" style="html=1;points=[];perimeter=orthogonalPerimeter;fillColor=strokeColor;align=left;verticalAlign=top;spacingLeft=10;" vertex="1" parent="zIGlHDeocK-FYwGrawx6-1">
          <mxGeometry x="52.5" y="190" width="5" height="330" as="geometry" />
        </mxCell>
        <mxCell id="zIGlHDeocK-FYwGrawx6-9" value=":Articles" style="shape=umlLifeline;perimeter=lifelinePerimeter;whiteSpace=wrap;html=1;container=1;dropTarget=0;collapsible=0;recursiveResize=0;outlineConnect=0;portConstraint=eastwest;newEdgeStyle={&quot;edgeStyle&quot;:&quot;elbowEdgeStyle&quot;,&quot;elbow&quot;:&quot;vertical&quot;,&quot;curved&quot;:0,&quot;rounded&quot;:0};" vertex="1" parent="zIGlHDeocK-FYwGrawx6-1">
          <mxGeometry x="416" y="100" width="100" height="420" as="geometry" />
        </mxCell>
        <mxCell id="zIGlHDeocK-FYwGrawx6-10" value="" style="html=1;points=[];perimeter=orthogonalPerimeter;fillColor=strokeColor;align=left;verticalAlign=top;spacingLeft=10;" vertex="1" parent="zIGlHDeocK-FYwGrawx6-1">
          <mxGeometry x="463.5" y="320" width="5" height="180" as="geometry" />
        </mxCell>
        <mxCell id="zIGlHDeocK-FYwGrawx6-11" value="" style="html=1;points=[];perimeter=orthogonalPerimeter;fillColor=strokeColor;align=left;verticalAlign=top;spacingLeft=10;" vertex="1" parent="zIGlHDeocK-FYwGrawx6-1">
          <mxGeometry x="253.5" y="260" width="5" height="10" as="geometry" />
        </mxCell>
        <mxCell id="zIGlHDeocK-FYwGrawx6-12" value="Choose_An_ArticleGroup()" style="html=1;verticalAlign=bottom;labelBackgroundColor=none;endArrow=block;endFill=1;rounded=0;" edge="1" parent="zIGlHDeocK-FYwGrawx6-1">
          <mxGeometry x="0.0025" width="160" relative="1" as="geometry">
            <mxPoint x="53.5" y="320" as="sourcePoint" />
            <mxPoint x="253.5" y="320" as="targetPoint" />
            <mxPoint as="offset" />
          </mxGeometry>
        </mxCell>
        <mxCell id="zIGlHDeocK-FYwGrawx6-13" value="View_Articles()" style="html=1;verticalAlign=bottom;labelBackgroundColor=none;endArrow=none;endFill=0;rounded=0;entryX=0.5;entryY=0.19;entryDx=0;entryDy=0;entryPerimeter=0;startArrow=block;startFill=1;exitX=2.1;exitY=0.488;exitDx=0;exitDy=0;exitPerimeter=0;" edge="1" parent="zIGlHDeocK-FYwGrawx6-1" source="zIGlHDeocK-FYwGrawx6-8">
          <mxGeometry x="0.4632" width="160" relative="1" as="geometry">
            <mxPoint x="256" y="350.5" as="sourcePoint" />
            <mxPoint x="463.5" y="350" as="targetPoint" />
            <mxPoint as="offset" />
          </mxGeometry>
        </mxCell>
        <mxCell id="zIGlHDeocK-FYwGrawx6-15" value="" style="html=1;verticalAlign=bottom;labelBackgroundColor=none;endArrow=block;endFill=1;rounded=0;" edge="1" parent="zIGlHDeocK-FYwGrawx6-1">
          <mxGeometry x="0.0025" width="160" relative="1" as="geometry">
            <mxPoint x="256" y="320" as="sourcePoint" />
            <mxPoint x="463.5" y="320" as="targetPoint" />
            <mxPoint as="offset" />
          </mxGeometry>
        </mxCell>
        <mxCell id="zIGlHDeocK-FYwGrawx6-16" value="Open_An_Article()" style="html=1;verticalAlign=bottom;labelBackgroundColor=none;endArrow=block;endFill=1;rounded=0;startArrow=none;startFill=0;exitX=2.1;exitY=0.488;exitDx=0;exitDy=0;exitPerimeter=0;entryX=0.3;entryY=0.839;entryDx=0;entryDy=0;entryPerimeter=0;" edge="1" parent="zIGlHDeocK-FYwGrawx6-1" target="zIGlHDeocK-FYwGrawx6-10">
          <mxGeometry x="0.4632" width="160" relative="1" as="geometry">
            <mxPoint x="57.5" y="471" as="sourcePoint" />
            <mxPoint x="456" y="470" as="targetPoint" />
            <mxPoint as="offset" />
          </mxGeometry>
        </mxCell>
      </root>
    </mxGraphModel>
  </diagram>
</mxfile>
